<svg width="175" height="70" viewBox="0 0 175 70" fill="none" xmlns="http://www.w3.org/2000/svg">
    <rect width="175" height="70" rx="10" fill="#191C1F"/>
    <path d="M46.4545 31.25C46.2955 30.697 46.072 30.2083 45.7841 29.7841C45.4962 29.3523 45.1439 28.9886 44.7273 28.6932C44.3182 28.3902 43.8485 28.1591 43.3182 28C42.7955 27.8409 42.2159 27.7614 41.5795 27.7614C40.3902 27.7614 39.3447 28.0568 38.4432 28.6477C37.5492 29.2386 36.8523 30.0985 36.3523 31.2273C35.8523 32.3485 35.6023 33.7197 35.6023 35.3409C35.6023 36.9621 35.8485 38.3409 36.3409 39.4773C36.8333 40.6136 37.5303 41.4811 38.4318 42.0795C39.3333 42.6705 40.3977 42.9659 41.625 42.9659C42.7386 42.9659 43.6894 42.7689 44.4773 42.375C45.2727 41.9735 45.8788 41.4091 46.2955 40.6818C46.7197 39.9545 46.9318 39.0947 46.9318 38.1023L47.9318 38.25H41.9318V34.5455H51.6705V37.4773C51.6705 39.5227 51.2386 41.2803 50.375 42.75C49.5114 44.2121 48.322 45.3409 46.8068 46.1364C45.2917 46.9242 43.5568 47.3182 41.6023 47.3182C39.4205 47.3182 37.5038 46.8371 35.8523 45.875C34.2008 44.9053 32.9129 43.5303 31.9886 41.75C31.072 39.9621 30.6136 37.8409 30.6136 35.3864C30.6136 33.5 30.8864 31.8182 31.4318 30.3409C31.9848 28.8561 32.7576 27.5985 33.75 26.5682C34.7424 25.5379 35.8977 24.7538 37.2159 24.2159C38.5341 23.678 39.9621 23.4091 41.5 23.4091C42.8182 23.4091 44.0455 23.6023 45.1818 23.9886C46.3182 24.3674 47.3258 24.9053 48.2045 25.6023C49.0909 26.2992 49.8144 27.1288 50.375 28.0909C50.9356 29.0455 51.2955 30.0985 51.4545 31.25H46.4545ZM55.3665 47V23.7273H71.0483V27.7841H60.2869V33.3295H70.2415V37.3864H60.2869V42.9432H71.0938V47H55.3665ZM74.9602 23.7273H81.0284L87.4375 39.3636H87.7102L94.1193 23.7273H100.188V47H95.4148V31.8523H95.2216L89.1989 46.8864H85.9489L79.9261 31.7955H79.733V47H74.9602V23.7273Z" fill="#036635"/>
    <path d="M113.341 23.7273H118.205V39.9545C118.205 41.4545 117.867 42.7576 117.193 43.8636C116.527 44.9697 115.598 45.822 114.409 46.4205C113.22 47.0189 111.837 47.3182 110.261 47.3182C108.86 47.3182 107.587 47.072 106.443 46.5795C105.307 46.0795 104.405 45.322 103.739 44.3068C103.072 43.2841 102.742 42 102.75 40.4545H107.648C107.663 41.0682 107.788 41.5947 108.023 42.0341C108.265 42.4659 108.595 42.7992 109.011 43.0341C109.436 43.2614 109.936 43.375 110.511 43.375C111.117 43.375 111.629 43.2462 112.045 42.9886C112.47 42.7235 112.792 42.3371 113.011 41.8295C113.231 41.322 113.341 40.697 113.341 39.9545V23.7273ZM143.659 35.3636C143.659 37.9015 143.178 40.0606 142.216 41.8409C141.261 43.6212 139.958 44.9811 138.307 45.9205C136.663 46.8523 134.814 47.3182 132.761 47.3182C130.693 47.3182 128.837 46.8485 127.193 45.9091C125.549 44.9697 124.25 43.6098 123.295 41.8295C122.341 40.0492 121.864 37.8939 121.864 35.3636C121.864 32.8258 122.341 30.6667 123.295 28.8864C124.25 27.1061 125.549 25.75 127.193 24.8182C128.837 23.8788 130.693 23.4091 132.761 23.4091C134.814 23.4091 136.663 23.8788 138.307 24.8182C139.958 25.75 141.261 27.1061 142.216 28.8864C143.178 30.6667 143.659 32.8258 143.659 35.3636ZM138.67 35.3636C138.67 33.7197 138.424 32.3333 137.932 31.2045C137.447 30.0758 136.761 29.2197 135.875 28.6364C134.989 28.053 133.951 27.7614 132.761 27.7614C131.572 27.7614 130.534 28.053 129.648 28.6364C128.761 29.2197 128.072 30.0758 127.58 31.2045C127.095 32.3333 126.852 33.7197 126.852 35.3636C126.852 37.0076 127.095 38.3939 127.58 39.5227C128.072 40.6515 128.761 41.5076 129.648 42.0909C130.534 42.6742 131.572 42.9659 132.761 42.9659C133.951 42.9659 134.989 42.6742 135.875 42.0909C136.761 41.5076 137.447 40.6515 137.932 39.5227C138.424 38.3939 138.67 37.0076 138.67 35.3636Z" fill="white"/>
</svg>